<?xml version="1.0" encoding="utf-8"?>
<!-- Generator: Adobe Illustrator 25.0.1, SVG Export Plug-In . SVG Version: 6.00 Build 0)  -->
<svg version="1.1" xmlns="http://www.w3.org/2000/svg" xmlns:xlink="http://www.w3.org/1999/xlink" x="0px" y="0px"
	 viewBox="0 0 188.32 188.32" style="enable-background:new 0 0 188.32 188.32;" xml:space="preserve">
<style type="text/css">
	.st0{fill:none;}
	.st1{fill:#D2580F;}
	.st2{fill:#F9F1E4;}
	.st3{fill:#4D2A22;}
	.st4{fill:#F7FFFA;}
	.st5{fill:#F58345;}
	.st6{fill:#FDC59D;}
	.st7{fill:#EEA47D;}
	.st8{fill:#4F0200;}
	.st9{fill:#6C4B41;}
	.st10{fill:#7C5850;}
	.st11{opacity:0.61;fill:#FCA691;}
</style>
<g id="BACKGROUND">
</g>
<g id="OBJECTS">
	<g>
		
			<ellipse transform="matrix(0.7071 -0.7071 0.7071 0.7071 -39.0016 94.1581)" class="st0" cx="94.16" cy="94.16" rx="94.16" ry="94.16"/>
		<g>
			<g>
				<g>
					<path class="st1" d="M94.16,188.32c15.53,0,30.17-3.79,43.09-10.45c-0.91-3.95-3.61-14.21-8.33-20.45
						c-7.96-10.51-52.09-13.64-62.32-1.71c-5.31,6.2-9.26,19.26-10.69,24.49C67.6,185.4,80.53,188.32,94.16,188.32z"/>
					<path class="st2" d="M75.24,150.61c3.32,9.26,10.82,27.13,20.96,32.62c0,0,17.02-12.42,21.73-31.98
						C105.66,147.48,86.96,146.77,75.24,150.61z"/>
					<path class="st3" d="M99.66,161.92c0,0-5.18,0.28-5.05,0.08c0,0-2.44,8.97-4.29,16.48c1.84,1.98,3.79,3.64,5.87,4.76
						c0,0,3.33-2.43,7.46-6.84C101.86,169.33,99.66,161.92,99.66,161.92z"/>
					<path class="st3" d="M101.25,155.09c0.6,0.77,0.43,7.27-0.43,7.62c-0.86,0.34-7.22,0.93-8.08,0.07
						c-0.86-0.86-1.04-7.51-1.04-7.51S100.64,154.32,101.25,155.09z"/>
					<path class="st4" d="M97.53,155.07c-0.36-0.12-6.39,8.71-9.25,6.93c-2.86-1.78-7.36-11.52-5.33-13.42
						c2.02-1.9,26.67-1.72,27.1,0.86c0.33,2.01-1.81,14.1-4.9,13.51C102.05,162.35,97.53,155.07,97.53,155.07z"/>
					<g>
						<path class="st5" d="M65.53,157.07c-0.28,0.38-0.55,0.78-0.82,1.2c-0.04,0.07-0.08,0.14-0.13,0.2
							c-0.24,0.38-0.48,0.77-0.72,1.18c-0.05,0.09-0.11,0.18-0.16,0.27c-0.26,0.45-0.51,0.91-0.75,1.37
							c-0.06,0.11-0.11,0.22-0.17,0.32c-0.22,0.43-0.44,0.86-0.65,1.31c-0.03,0.07-0.07,0.14-0.1,0.21
							c-0.23,0.49-0.46,0.99-0.69,1.49c-0.06,0.13-0.12,0.26-0.17,0.39c-0.22,0.5-0.44,1-0.65,1.51c-0.02,0.05-0.04,0.11-0.07,0.16
							c-0.2,0.47-0.39,0.95-0.57,1.42c-0.05,0.13-0.1,0.25-0.15,0.38c-0.19,0.5-0.38,1-0.57,1.49c-0.04,0.1-0.07,0.2-0.11,0.31
							c-0.16,0.44-0.32,0.88-0.47,1.31c-0.03,0.1-0.07,0.19-0.1,0.29c-0.17,0.49-0.33,0.97-0.49,1.44
							c-0.04,0.11-0.07,0.22-0.11,0.33c-0.15,0.45-0.29,0.9-0.43,1.33c-0.01,0.03-0.02,0.05-0.03,0.08
							c-0.15,0.46-0.29,0.91-0.42,1.34c-0.03,0.09-0.05,0.17-0.08,0.26c-0.13,0.43-0.25,0.84-0.37,1.24c0,0.01-0.01,0.02-0.01,0.03
							c-0.12,0.41-0.23,0.8-0.34,1.17c-0.01,0.02-0.01,0.04-0.02,0.07c-0.11,0.37-0.2,0.72-0.29,1.04c5,2.23,10.24,4,15.65,5.34
							c0.13-14.86-2.23-25.95-4.12-30.69c-0.3,0.28-0.59,0.56-0.84,0.86c-0.3,0.35-0.59,0.72-0.88,1.11
							C65.66,156.9,65.59,156.99,65.53,157.07z"/>
						<path class="st5" d="M136.83,176.16c-0.01-0.02-0.01-0.05-0.02-0.07c-0.08-0.31-0.16-0.64-0.25-0.98
							c-0.01-0.05-0.03-0.1-0.04-0.15c-0.09-0.34-0.19-0.68-0.29-1.05c0-0.01-0.01-0.03-0.01-0.04c-0.1-0.36-0.21-0.73-0.32-1.1
							c-0.03-0.09-0.05-0.18-0.08-0.26c-0.11-0.38-0.23-0.76-0.36-1.16c-0.02-0.05-0.03-0.11-0.05-0.16
							c-0.11-0.35-0.23-0.71-0.35-1.07c-0.03-0.1-0.07-0.2-0.1-0.3c-0.13-0.4-0.28-0.8-0.42-1.21c-0.03-0.09-0.07-0.19-0.1-0.28
							c-0.13-0.37-0.27-0.74-0.42-1.12c-0.03-0.07-0.05-0.14-0.08-0.21c-0.16-0.41-0.33-0.83-0.5-1.25
							c-0.04-0.11-0.09-0.22-0.14-0.33c-0.18-0.42-0.36-0.85-0.55-1.27c-0.02-0.04-0.04-0.08-0.05-0.12
							c-0.18-0.4-0.36-0.79-0.55-1.18c-0.05-0.09-0.09-0.19-0.14-0.28c-0.2-0.41-0.41-0.82-0.62-1.22
							c-0.04-0.08-0.08-0.15-0.12-0.23c-0.2-0.36-0.4-0.72-0.61-1.07c-0.04-0.06-0.07-0.13-0.11-0.19
							c-0.23-0.39-0.47-0.76-0.71-1.13c-0.05-0.08-0.11-0.16-0.16-0.24c-0.25-0.37-0.51-0.74-0.77-1.09c0,0-0.01-0.01-0.01-0.01
							c-0.27-0.35-0.57-0.69-0.92-1.02c-0.06-0.06-0.14-0.12-0.21-0.18c-0.31-0.28-0.63-0.56-0.98-0.82
							c-0.05-0.04-0.11-0.08-0.16-0.12c-0.4-0.29-0.82-0.58-1.28-0.85c-0.02-0.01-0.04-0.02-0.06-0.03c-0.5-0.3-1.03-0.59-1.59-0.87
							c0,0,0,0,0,0c-2.99,7.25-2.4,20.47-1.1,30.42c5.08-1.61,9.99-3.64,14.66-6.05C137.14,177.39,137,176.81,136.83,176.16z"/>
					</g>
				</g>
				<g>
					<g>
						<polygon class="st6" points="100.83,142.02 101.63,151.98 97.51,156.03 93.48,152.18 93,141.93 						"/>
					</g>
				</g>
				<polygon class="st7" points="100.83,142.02 93,141.93 93.32,148.78 101.4,149.06 				"/>
			</g>
			<g>
				<path class="st6" d="M162.23,105.8c-0.33,9.55-7.71,17.05-16.46,16.74c-8.76-0.31-15.58-8.3-15.25-17.85
					c0.33-9.55,7.7-17.05,16.46-16.74C155.74,88.26,162.57,96.25,162.23,105.8z"/>
				<path class="st7" d="M158.98,105.47c-0.2,5.63-4.54,10.05-9.71,9.87c-5.16-0.18-9.19-4.89-8.99-10.53
					c0.2-5.63,4.54-10.05,9.71-9.87C155.16,95.12,159.18,99.83,158.98,105.47z"/>
				<path class="st6" d="M57.06,100.56c-0.33,9.55-7.7,17.05-16.46,16.74C31.85,117,25.02,109,25.35,99.45
					c0.33-9.55,7.71-17.05,16.46-16.74C50.57,83.02,57.4,91.01,57.06,100.56z"/>
				<path class="st7" d="M50.26,100.18c-0.2,5.63-4.54,10.05-9.71,9.87c-5.16-0.18-9.19-4.89-8.99-10.53
					c0.2-5.63,4.54-10.05,9.71-9.87C46.43,89.84,50.46,94.55,50.26,100.18z"/>
				<g>
					<path class="st6" d="M105.12,50.39l-18.13-0.64c-49.72,0.96-42.9,21.37-43.72,44.7l-0.24,6.97
						c-0.82,23.33,17.43,42.9,40.76,43.72l18.13,0.64c23.33,0.82,42.9-17.43,43.72-40.76l0.24-6.97
						C146.7,74.73,157.82,45.05,105.12,50.39z"/>
				</g>
				<g>
					<g>
						<path class="st8" d="M109.98,74.51c2-0.26,4.04-0.21,6.04-0.01c0.98,0.1,1.96,0.27,2.92,0.49c0.96,0.22,2.04,0.75,3.02,0.53
							c0.7-0.16,0.8-1.01,0.39-1.49c-0.67-0.78-2.09-0.94-3.06-1.14c-1.04-0.22-2.11-0.36-3.17-0.46c-2.15-0.18-4.26,0.02-6.38,0.38
							C108.81,72.98,109.02,74.63,109.98,74.51L109.98,74.51z"/>
					</g>
				</g>
				<g>
					<g>
						<path class="st8" d="M79.21,72.82c-2.12-0.36-4.23-0.57-6.38-0.38c-1.06,0.09-2.12,0.24-3.17,0.46
							c-0.97,0.2-2.39,0.36-3.06,1.14c-0.41,0.48-0.31,1.33,0.39,1.49c0.99,0.23,2.06-0.31,3.02-0.53c0.96-0.22,1.94-0.39,2.92-0.49
							c2-0.2,4.05-0.25,6.04,0.01C79.93,74.63,80.16,72.98,79.21,72.82L79.21,72.82z"/>
					</g>
				</g>
				<path class="st9" d="M155.82,37.08c-14.81-22.03-43.14-19.03-49.16-18.11c-1.22-6.03-4.46-12.37-12.67-12.6
					c-15.78-0.43-38.38,20.9-49.47,24.73c-9.68,3.35-18.5,15.8-19.19,29.85c-0.85,17.48,13.86,48.16,18.76,43.92
					c2.06-1.78,1.64-10.41,2.2-21.09c2.12-11.3,3.44-23.22,9.74-26.67c1.28-0.7,2.61-1.26,3.99-1.7
					c11.36,11.5,26.29,2.98,26.29,2.98L71.39,70.34c21.32,1.71,27.29-9.81,27.29-9.81C96.97,65.65,84.61,74.6,84.61,74.6
					c19.1-3.65,25.43-14.7,27.53-21.82c6.64-1.17,11.56-1.55,18.53,1.35c15.35,6.4,12.29,50.49,14.72,50.49
					c2.42,0,0.72-15.83,10.28-13.96c0,0,1.16-6.58,1.12-15.59C161.67,66.06,165.77,51.88,155.82,37.08z"/>
				<path class="st10" d="M72.9,38.22c3.21,2.27-3.21,6.99-6.42,5.86C63.27,42.94,69.69,35.95,72.9,38.22z"/>
				<path class="st10" d="M69.78,29.43c3.32,4.07-6.13,11.42-11.14,8.63C53.62,35.28,66.36,25.23,69.78,29.43z"/>
				<g>
					<g>
						<path class="st8" d="M83.8,115.2c3.46-0.18,6.93-0.33,10.39-0.44c1.7-0.05,3.4-0.09,5.1-0.11c1.75-0.03,3.56,0.07,5.3-0.12
							c0.39-0.04,0.4-0.58,0-0.61c-1.75-0.15-3.55,0.02-5.3,0.07c-1.7,0.05-3.4,0.11-5.1,0.18c-3.47,0.13-6.93,0.28-10.39,0.48
							C83.44,114.65,83.44,115.21,83.8,115.2L83.8,115.2z"/>
					</g>
				</g>
				<g>
					<g>
						<path class="st8" d="M91.23,118.59c1.14,0,2.29,0.01,3.43,0.01c0.56,0,1.12,0,1.68,0c0.57,0,1.18,0.05,1.75-0.01
							c0.37-0.04,0.37-0.53,0-0.57c-0.57-0.07-1.18-0.01-1.75-0.01c-0.56,0-1.12,0-1.68,0c-1.14,0-2.29,0.01-3.43,0.01
							C90.86,118.02,90.86,118.59,91.23,118.59L91.23,118.59z"/>
					</g>
				</g>
				<g>
					<g>
						<path class="st4" d="M113.53,112.65L113.53,112.65c5.87-0.01,10.62-4.77,10.62-10.64l-0.01-5.63
							c-0.01-5.87-4.77-10.62-10.64-10.61l0,0c-5.87,0.01-10.62,4.77-10.62,10.64l0.01,5.63
							C102.89,107.9,107.66,112.65,113.53,112.65z"/>
						<path class="st9" d="M102.88,96.41c0-3.18,1.39-6.02,3.6-7.97c0.84-0.3,1.72-0.48,2.64-0.48c5.18-0.01,9.38,5.17,9.39,11.55
							c0.01,6.39-4.18,11.57-9.36,11.58c-0.47,0-0.93-0.06-1.38-0.14c-2.93-1.89-4.88-5.17-4.88-8.92L102.88,96.41z"/>
					</g>
					<g>
						<path class="st4" d="M73.91,112.65L73.91,112.65c-5.87,0.08-10.69-4.61-10.78-10.48l-0.08-5.63
							c-0.08-5.87,4.61-10.69,10.48-10.78l0,0c5.87-0.08,10.69,4.61,10.78,10.48l0.08,5.63C84.47,107.74,79.78,112.56,73.91,112.65z
							"/>
						<path class="st9" d="M84.31,96.24c-0.04-3.18-1.49-6-3.72-7.92c-0.84-0.29-1.73-0.45-2.65-0.44c-5.18,0.07-9.3,5.31-9.21,11.7
							c0.09,6.39,4.36,11.51,9.54,11.43c0.47-0.01,0.93-0.07,1.38-0.16c2.9-1.93,4.8-5.25,4.75-8.99L84.31,96.24z"/>
					</g>
				</g>
				<path class="st3" d="M152.6,82.31c-4.93-1.97-38.18-11.43-54.8,6.89c0,0-0.13,0.72-0.25,1.94c-2.27-0.37-4.33-0.34-5.78-0.21
					c-0.06-0.52-0.11-0.81-0.11-0.81c-13.87-20.54-50.33-9.78-55.26-7.81c-4.93,1.97-5.17,6.65-3.2,10.59
					c1.97,3.94,7.39,1.72,7.39,1.72c-0.99,21.93,6.93,28.9,27.59,27.84c20.62-1.06,23.75-17.16,23.86-26.24
					c2.17-0.5,3.98-0.41,5.29-0.17c0.1,9.43,3.27,25.37,23.49,26.41c20.67,1.06,28.58-5.91,27.59-27.84c0,0,5.42,2.22,7.39-1.72
					C157.77,88.96,157.53,84.28,152.6,82.31z M58.08,117.29c-16.51-3.94-13.62-30.44-13.62-30.44c30.12-9.51,43.03,3.3,43.03,3.3
					C88.96,111.1,74.58,121.23,58.08,117.29z M130.92,117.29c-16.51,3.94-30.88-6.19-29.4-27.13c0,0,12.91-12.81,43.03-3.3
					C144.54,86.86,147.42,113.35,130.92,117.29z"/>
				<g>
					<g>
						<path class="st8" d="M95.59,100.99c-0.43,0.83-0.9,1.65-1.3,2.49c0.26-0.03,0.52-0.07,0.78-0.1
							c-0.37-0.47-0.75-0.94-1.16-1.37c-0.2-0.21-0.41-0.42-0.62-0.63c-0.21-0.21-0.46-0.41-0.58-0.68
							c-0.14-0.31-0.65-0.22-0.72,0.09c-0.09,0.36-0.11,0.75-0.16,1.12c-0.04,0.34-0.06,0.68-0.07,1.02
							c-0.01,0.34-0.02,0.68-0.01,1.02c0,0.38-0.04,0.81,0.14,1.16c0.18,0.35,0.65,0.21,0.76-0.1c0.12-0.31,0.03-0.73,0.03-1.06
							c-0.01-0.34-0.01-0.68,0-1.02c0.01-0.68,0.09-1.36,0.09-2.04c-0.2,0.11-0.4,0.23-0.59,0.34c0.25,0.13,0.44,0.39,0.61,0.6
							c0.18,0.23,0.35,0.46,0.51,0.69c0.34,0.48,0.69,0.95,1.01,1.45c0.2,0.31,0.66,0.34,0.86,0c0.47-0.81,0.87-1.66,1.3-2.49
							c0.12-0.24,0.06-0.54-0.18-0.68C96.05,100.68,95.72,100.75,95.59,100.99L95.59,100.99z"/>
					</g>
				</g>
				<path class="st11" d="M73.67,122.44c-0.62,3.96-5.33,6.5-10.53,5.69c-5.2-0.81-8.91-4.68-8.29-8.63
					c0.62-3.96,5.33-6.5,10.53-5.69C70.58,114.62,74.29,118.48,73.67,122.44z"/>
				<path class="st11" d="M135.25,117.51c0.81,3.92-2.7,7.96-7.85,9.03c-5.15,1.07-9.99-1.24-10.8-5.16
					c-0.81-3.92,2.7-7.96,7.85-9.03C129.6,111.28,134.44,113.59,135.25,117.51z"/>
			</g>
		</g>
	</g>
</g>
</svg>
